<svg width="322" height="451" viewBox="0 0 322 451" fill="none" xmlns="http://www.w3.org/2000/svg">
<path fill-rule="evenodd" clip-rule="evenodd" d="M204.772 88.9916C209.913 84.2703 213.748 78.1819 214.129 70.8794C215.23 49.8389 185.618 50.8652 178.674 60.701C171.729 70.5368 169.118 97.3264 176.189 100.104C179.009 101.212 185.439 100.134 192.221 97.1039L184.812 124.649L208.214 127.519L204.772 88.9916Z" fill="#FCCB9F"/>
<path fill-rule="evenodd" clip-rule="evenodd" d="M193.502 50.2073C196.648 50.0801 204.997 50.7514 206.528 50.9395C207.507 51.0596 208.54 51.4133 209.23 50.586C209.796 49.9085 209.775 48.6429 210.021 47.8065C210.308 46.8348 210.662 45.8845 211.018 44.937C212.032 42.2407 213.374 39.7218 215.102 37.4143C218.345 33.0852 222.705 29.9175 227.904 28.4009C233.646 26.7264 239.883 26.9469 245.69 28.1419C251.905 29.4207 257.333 32.1894 263.021 34.8661C268.441 37.4167 274.267 38.8737 280.285 38.6913C286.35 38.5076 291.243 35.8346 296.639 33.3898C302.164 30.8869 308.289 29.5581 314.307 30.7746C319.924 31.9103 324.863 34.8925 329.169 38.595C333.197 42.0591 336.385 46.0235 337.82 51.2285C339.364 56.8276 338.643 62.6772 334.449 66.9435C328.368 73.1275 318.421 73.6992 310.348 72.5305C305.678 71.8548 301.185 70.4362 296.955 68.3396C291.314 65.5434 286.651 61.4049 281.486 57.8777C279.062 56.2224 276.522 54.7956 273.815 53.6601C271.188 52.558 268.551 51.8768 265.885 53.2179C263.065 54.6366 260.519 56.0578 257.404 56.7803C254.415 57.4734 251.313 57.6857 248.268 57.2882C242.344 56.5149 236.726 53.9509 231.119 52.0072C226.546 50.4224 221.645 48.8006 216.738 49.1828C214.69 49.3423 211.669 49.8197 210.693 51.8067C222.567 55.4972 225.492 71.0975 220.714 81.6999C218.135 87.4225 206.172 93.0142 202.238 89.3567C199.745 87.0396 201.726 84.6422 203.012 83.0569C205.475 80.0209 206.698 75.8832 203.17 73.1263C200.126 70.7485 196.095 75.0138 196.03 75.0006C195.136 74.8187 187.874 69.4492 183.288 62.3514C177.946 62.0149 177.57 58.4199 179.188 55.716C180.806 53.0121 189.154 50.3835 193.502 50.2073Z" fill="#191847"/>
<path fill-rule="evenodd" clip-rule="evenodd" d="M200.206 207.812L164.216 331.775L147.288 424.848H130.297L147.257 207.812H200.206Z" fill="#FCCB9F"/>
<path fill-rule="evenodd" clip-rule="evenodd" d="M216.381 207.812C213.869 272.21 214.86 307.335 215.422 313.185C215.984 319.036 219.175 358.221 240.918 426.812H223.246C194.451 361.011 184.399 321.826 181.096 313.185C177.793 304.545 168.039 269.421 153.799 207.812H216.381Z" fill="#FCCB9F"/>
<path fill-rule="evenodd" clip-rule="evenodd" d="M200.979 207.812C191.617 250.468 175.426 318.558 152.404 412.081H127.553C125.717 316.088 133.526 252.909 147.048 207.812H200.979Z" fill="#B4BFC6"/>
<path fill-rule="evenodd" clip-rule="evenodd" d="M216.506 207.812C214.047 272.21 220.421 335.654 240.165 413.084H213.65C184.802 348.265 164.125 285.134 149.994 207.812H216.506Z" fill="#C5CFD6"/>
<path fill-rule="evenodd" clip-rule="evenodd" d="M243.437 439.579L242.462 423.866C236.753 425.535 229.602 424.88 221.01 421.902C211.772 428.443 200.141 432.909 186.12 435.301C185.05 435.483 184.331 436.498 184.513 437.568C184.525 437.637 184.541 437.705 184.56 437.773L185.908 442.525H221.01H241.487L243.437 439.579Z" fill="#191847"/>
<path fill-rule="evenodd" clip-rule="evenodd" d="M151.08 439.579L150.105 423.866C144.396 425.535 137.246 424.88 128.654 421.902C119.415 428.443 107.785 432.909 93.763 435.301C92.6932 435.483 91.974 436.498 92.1566 437.568C92.1684 437.637 92.1839 437.705 92.2031 437.773L93.5511 442.525H128.654H149.13L151.08 439.579Z" fill="#191847"/>
<path fill-rule="evenodd" clip-rule="evenodd" d="M119.074 185.516L84.212 202.735C75.4427 203.518 67.9534 205.095 61.7441 207.466C60.2042 208.441 58.1689 210.606 63.7455 211.152C69.3222 211.699 75.1633 212.524 75.5915 214.534C76.0196 216.544 72.2942 218.201 73.3821 221.002C74.1074 222.87 79.6875 219.49 90.1224 210.863L122.921 203.578L119.074 185.516ZM237.436 207.177L217.202 203.694C222.578 246.184 225.545 268.749 226.105 271.39C227.365 277.331 221.137 284.944 218.31 289.126C224.388 293.241 225.614 282.185 233.255 287.523C240.229 292.396 244.879 299.817 254.613 295.949C255.809 295.474 257.434 293.175 254.923 290.713C248.665 284.579 239.913 274.23 239.023 271.175C237.809 267.008 237.28 245.675 237.436 207.177Z" fill="#FCCB9F"/>
<path fill-rule="evenodd" clip-rule="evenodd" d="M194.933 112.245L186.82 109.337C151.049 130.674 129.212 179.926 86.3493 200.503L93.5048 213.465C160.954 216.925 188.399 156.992 194.933 112.245Z" fill="#FFCC64"/>
<path fill-rule="evenodd" clip-rule="evenodd" d="M212.86 223.778C179.315 217.867 154.64 213.52 138.835 210.735C135.452 210.139 136.951 205.369 137.875 202.991C148.536 175.549 175.974 148.779 183.117 108.301L205.06 108.716C217.71 140.223 217.649 176.259 212.86 223.778Z" fill="#DDE3E9"/>
<path fill-rule="evenodd" clip-rule="evenodd" d="M226.8 141.326C230.058 140.981 232.881 139.336 235.267 136.389C245.556 123.687 244.105 115.439 236.214 111.422C228.323 107.405 219.96 111.342 206.671 109.001C205.949 108.874 205.279 108.802 204.662 108.787L197.91 107.991C167.266 169.587 154.327 212.006 159.093 235.247L217.356 245.512C219.388 254.167 221.497 261.52 223.682 267.569L239.557 270.366C249.574 222.335 245.321 179.322 226.8 141.326Z" fill="#FFCC64"/>
<path fill-rule="evenodd" clip-rule="evenodd" d="M210.561 209.906C206.024 224.909 201.083 235.508 195.737 241.702L217.359 245.511C214.989 235.415 212.723 223.547 210.561 209.906L210.561 209.906Z" fill="black" fill-opacity="0.1"/>
</svg>
