<svg width="15" height="15" viewBox="0 0 15 15" fill="none" xmlns="http://www.w3.org/2000/svg">
<path d="M6.2205 12.7485C5.89425 12.7485 5.58525 12.5963 5.38725 12.3338L2.7075 8.79303C2.62465 8.68368 2.56416 8.55908 2.5295 8.42634C2.49483 8.2936 2.48667 8.15533 2.50548 8.01944C2.52428 7.88354 2.56969 7.75269 2.6391 7.63435C2.70851 7.51601 2.80056 7.41252 2.91 7.32978C3.01939 7.2467 3.1441 7.18602 3.27699 7.15123C3.40988 7.11643 3.54833 7.10821 3.6844 7.12702C3.82047 7.14583 3.9515 7.19131 4.06996 7.26086C4.18842 7.3304 4.292 7.42264 4.37475 7.53228L6.138 9.86028L10.5712 2.74128C10.7183 2.50623 10.9525 2.33909 11.2226 2.27652C11.4927 2.21396 11.7766 2.26107 12.012 2.40753C12.5017 2.71203 12.6525 3.35703 12.3465 3.84753L7.1085 12.255C7.01908 12.3992 6.89583 12.5194 6.74945 12.6051C6.60307 12.6908 6.43797 12.7396 6.2685 12.747C6.252 12.7485 6.237 12.7485 6.2205 12.7485Z" fill="#51C0B0"/>
</svg>
